<?xml version="1.0" encoding="UTF-8"?>
<svg id="Layer_1" data-name="Layer 1" xmlns="http://www.w3.org/2000/svg" viewBox="0 0 400 400">
  <defs>
    <style>
      .cls-1 {
        fill: #f7941d;
        stroke-width: 0px;
      }
    </style>
  </defs>
  <path class="cls-1" d="M200,0C89.54,0,0,89.54,0,200s89.54,200,200,200,200-89.54,200-200S310.46,0,200,0ZM345.72,279.05c-10.26,4.89-21.25,7.33-32.98,7.33h-97.47c-22.31,0-33.47-7.33-33.47-21.99,0-4.89,1.14-10.58,3.42-17.1l18.57-52.52-84.04,71.09c-19.71,13.68-35.91,20.52-48.61,20.52H26.18l58.39-166.12h88.19l-27.61,78.17,74.51-61.07c20.19-16.45,42.1-24.35,65.72-23.7,15.96.65,23.94,9.12,23.94,25.41,0,6.03-1.31,12.79-3.91,20.28l-31.51,87.95h99.92c-4.24,14.33-13.6,24.92-28.09,31.76Z"/>
</svg>